ModelForces
version=1
nRows=4
nColumns=155
inDegrees=no

This file contains the forces exerted on a model during a simulation.

A force is a generalized force, meaning that it can be either a force (N) or a torque (Nm).

Units are S.I. units (second, meters, Newtons, ...)
Angles are in degrees.

endheader
time	glut_med1_r	glut_med2_r	glut_med3_r	glut_min1_r	glut_min2_r	glut_min3_r	semimem_r	semiten_r	bifemlh_r	bifemsh_r	sar_r	add_long_r	add_brev_r	add_mag1_r	add_mag2_r	add_mag3_r	tfl_r	pect_r	grac_r	glut_max1_r	glut_max2_r	glut_max3_r	iliacus_r	psoas_r	quad_fem_r	gem_r	peri_r	rect_fem_r	vas_med_r	vas_int_r	vas_lat_r	med_gas_r	lat_gas_r	soleus_r	tib_post_r	flex_dig_r	flex_hal_r	tib_ant_r	per_brev_r	per_long_r	per_tert_r	ext_dig_r	ext_hal_r	glut_med1_l	glut_med2_l	glut_med3_l	glut_min1_l	glut_min2_l	glut_min3_l	semimem_l	semiten_l	bifemlh_l	bifemsh_l	sar_l	add_long_l	add_brev_l	add_mag1_l	add_mag2_l	add_mag3_l	tfl_l	pect_l	grac_l	glut_max1_l	glut_max2_l	glut_max3_l	iliacus_l	psoas_l	quad_fem_l	gem_l	peri_l	rect_fem_l	vas_med_l	vas_int_l	vas_lat_l	med_gas_l	lat_gas_l	soleus_l	tib_post_l	flex_dig_l	flex_hal_l	tib_ant_l	per_brev_l	per_long_l	per_tert_l	ext_dig_l	ext_hal_l	ercspn_r	ercspn_l	intobl_r	intobl_l	extobl_r	extobl_l	femur_lat_meniscii_r.femur_lat_r.force.X	femur_lat_meniscii_r.femur_lat_r.force.Y	femur_lat_meniscii_r.femur_lat_r.force.Z	femur_lat_meniscii_r.femur_lat_r.torque.X	femur_lat_meniscii_r.femur_lat_r.torque.Y	femur_lat_meniscii_r.femur_lat_r.torque.Z	femur_lat_meniscii_r.meniscus_lat_r.force.X	femur_lat_meniscii_r.meniscus_lat_r.force.Y	femur_lat_meniscii_r.meniscus_lat_r.force.Z	femur_lat_meniscii_r.meniscus_lat_r.torque.X	femur_lat_meniscii_r.meniscus_lat_r.torque.Y	femur_lat_meniscii_r.meniscus_lat_r.torque.Z	femur_med_meniscii_r.femur_med_r.force.X	femur_med_meniscii_r.femur_med_r.force.Y	femur_med_meniscii_r.femur_med_r.force.Z	femur_med_meniscii_r.femur_med_r.torque.X	femur_med_meniscii_r.femur_med_r.torque.Y	femur_med_meniscii_r.femur_med_r.torque.Z	femur_med_meniscii_r.meniscus_med_r.force.X	femur_med_meniscii_r.meniscus_med_r.force.Y	femur_med_meniscii_r.meniscus_med_r.force.Z	femur_med_meniscii_r.meniscus_med_r.torque.X	femur_med_meniscii_r.meniscus_med_r.torque.Y	femur_med_meniscii_r.meniscus_med_r.torque.Z	femur_med_tibia_r.tibia_upper_r.force.X	femur_med_tibia_r.tibia_upper_r.force.Y	femur_med_tibia_r.tibia_upper_r.force.Z	femur_med_tibia_r.tibia_upper_r.torque.X	femur_med_tibia_r.tibia_upper_r.torque.Y	femur_med_tibia_r.tibia_upper_r.torque.Z	femur_med_tibia_r.femur_med_r.force.X	femur_med_tibia_r.femur_med_r.force.Y	femur_med_tibia_r.femur_med_r.force.Z	femur_med_tibia_r.femur_med_r.torque.X	femur_med_tibia_r.femur_med_r.torque.Y	femur_med_tibia_r.femur_med_r.torque.Z	femur_lat_tibia_r.tibia_upper_r.force.X	femur_lat_tibia_r.tibia_upper_r.force.Y	femur_lat_tibia_r.tibia_upper_r.force.Z	femur_lat_tibia_r.tibia_upper_r.torque.X	femur_lat_tibia_r.tibia_upper_r.torque.Y	femur_lat_tibia_r.tibia_upper_r.torque.Z	femur_lat_tibia_r.femur_lat_r.force.X	femur_lat_tibia_r.femur_lat_r.force.Y	femur_lat_tibia_r.femur_lat_r.force.Z	femur_lat_tibia_r.femur_lat_r.torque.X	femur_lat_tibia_r.femur_lat_r.torque.Y	femur_lat_tibia_r.femur_lat_r.torque.Z	aACL_R	pACL_R	aPCL_R	pPCL_R	aMCL_R	mMCL_R	pMCL_R	aLCL_R	mLCL_R	pLCL_R	aPCL_L	pPCL_L	aMCL_L	aLCL_L
      0.10738571	      7.94518978	     11.39608117	     12.28934264	      5.19915492	      5.95784809	      6.60786167	    117.53948689	    170.34483251	    226.84636285	    363.66042083	    126.42484289	     11.38295025	      8.04734956	      0.00000000	      4.86495754	      8.56067363	      5.05588829	      0.18776864	    101.05570506	      7.36719443	     11.22119925	      8.46901947	     33.21665619	     24.99231101	      7.07875136	      4.59142105	      3.97449913	     38.89536284	      0.00000000	      0.00000000	      0.00000000	     22.11869995	      1.19066690	      0.00000000	      0.00000000	      2.27952683	      0.01852192	     30.18839520	      2.92782962	      4.39291239	      9.27089280	     17.33069242	      5.44560818	      7.94518978	     11.39608117	     12.28934264	      5.19915492	      5.95784809	      6.60786167	      0.00000000	      8.59397118	     14.92047037	     14.32602976	      2.96243059	     11.38295025	      8.04734956	      0.00000000	      4.86495754	      8.56067363	      6.89348549	      0.18776864	      3.07387860	      7.36719443	     11.22119925	      8.46901947	     33.21665619	     24.99231101	      7.07875136	      4.59142105	      3.97449913	     23.61412740	      0.00000000	      0.00000000	      0.00000000	     15.98352964	      8.32450341	     58.04337353	     57.83378418	      7.97037401	      7.37024495	     16.84387688	      9.50498841	     21.83875200	      3.85743545	     11.50231497	      3.89206055	     48.96985764	     48.96985764	     18.60465870	     18.60465870	     35.52838197	     35.52838197	     73.48439322	    319.14493475	     45.71510128	    -26.50142511	      1.93265708	     28.98940274	    -73.48439322	   -319.14493475	    -45.71510128	      9.74204651	     -2.53983231	      2.18912747	    -37.48520953	     79.80719488	     10.99829967	     -2.59845751	      0.89962904	    -15.33709817	     37.48520953	    -79.80719488	    -10.99829967	     -1.42680347	     -0.92230976	      1.78248784	    -95.94118121	   -483.92896347	    103.16926566	    -11.28959078	      2.29994376	      0.32404023	     95.94118121	    483.92896347	   -103.16926566	     51.80552361	     -1.51524654	     41.03405353	    -24.98249951	    -90.66844200	    -22.31160315	      3.08094396	     -0.86849457	      0.07909599	     24.98249951	     90.66844200	     22.31160315	    -11.40609029	      0.59649999	     10.34795791	      5.60211703	    -12.52488515	      0.00000000	     59.17828525	      0.00000000	      0.00000000	    -39.27765899	      0.00000000	      0.00000000	      0.00000000	      0.00000000	      0.00000000	      0.00000001	      0.00000000
      0.10825827	      8.72684116	     11.32959741	     12.21806356	      5.16980165	      5.92548169	      6.57669897	    117.04115835	    169.92312107	    224.80380413	    361.68753870	    126.45958799	     11.31555895	      8.00232266	      0.00000000	      4.84893598	      8.50911343	      5.05521644	      2.26726728	    100.97944079	      7.32437708	     11.15500538	      8.41842787	     33.09174851	     24.85010292	      7.05741575	      4.57095483	      4.14004499	     38.73675567	      0.00000000	      0.00000000	      0.00000000	     23.72909547	      1.13009086	      0.00000000	      0.00000000	      1.93428742	      0.00000000	     30.29656911	      3.19113092	      4.52218955	      6.75591790	     17.28199901	      5.42058265	      8.72684116	     11.32959741	     12.21806356	      5.16980165	      5.92548169	      6.57669897	      0.00000000	      8.54119763	     14.91262258	     14.24339278	      2.94578037	     11.31555895	      8.00232266	      0.00000000	      4.84893598	      8.50911343	      6.86314570	      2.26726728	      3.05631572	      7.32437708	     11.15500538	      8.41842787	     33.09174851	     24.85010292	      7.05741575	      4.57095483	      4.14004499	     23.48751228	      0.00000000	      0.00000000	      0.00000000	     16.30269848	      8.44242664	     58.08875157	     57.73977433	      7.87916727	      7.27284082	     16.81844836	      9.46847515	     21.80039317	      3.83575874	     11.59729479	      3.92241870	     48.69281139	     48.69281139	     18.49234175	     18.49234175	     35.42486003	     35.42486003	     77.05236119	    324.81672529	     44.16097457	    -25.98367411	      1.99783522	     30.41595268	    -77.05236119	   -324.81672529	    -44.16097457	      9.81869944	     -2.60104019	      2.22554910	    -36.33645684	     80.40566485	     11.91148687	     -2.96164608	      0.87075533	    -14.86339556	     36.33645684	    -80.40566485	    -11.91148687	     -1.41436245	     -0.90783843	      1.76453091	   -102.92115263	   -488.33787065	    103.58166946	    -11.37919658	      2.42868748	      0.18457903	    102.92115263	    488.33787065	   -103.58166946	     52.04440101	     -1.63765214	     43.95066470	    -24.48570743	    -85.19651019	    -21.02852028	      2.89354863	     -0.84543601	      0.05660900	     24.48570743	     85.19651019	     21.02852028	    -10.74375621	      0.58504403	     10.13918088	      5.51879430	    -12.42384624	     25.90384485	     58.17743832	      0.00000000	      0.00000000	    -40.93456923	      0.00000000	      0.00000000	      0.00000000	      0.00000000	      0.00000000	      0.00000001	      0.00000000
      0.10913082	      9.39089527	     11.26387201	     12.14747660	      5.14079714	      5.89350395	      6.54527452	    116.54380676	    169.55520578	    222.67070301	    359.50942156	    126.50360696	     11.24897792	      7.95782896	      0.00000000	      4.83191996	      8.45804567	      5.05157472	      3.13752074	    100.89333008	      7.28199959	     11.08959611	      8.36844244	     32.96837249	     24.70962790	      7.03317946	      4.55072354	      4.29513865	     38.57849777	      0.00000000	      0.00000000	      0.00000000	     25.46120966	      1.07723314	      0.00000000	      0.00000000	      1.60004272	      0.00000000	     29.72750618	      3.47312640	      4.66991679	      9.06198224	     17.35778813	      5.39535563	      9.39089527	     11.26387201	     12.14747660	      5.14079714	      5.89350395	      6.54527452	      0.00000000	      8.48905816	     14.90264519	     14.16174490	      2.92932765	     11.24897792	      7.95782896	      0.00000000	      4.83191996	      8.45804567	      6.83304500	      3.13752074	      3.03896232	      7.28199959	     11.08959611	      8.36844244	     32.96837249	     24.70962790	      7.03317946	      4.55072354	      4.29513865	     23.36121652	      0.00000000	      0.00000000	      0.00000000	     16.60661726	      8.55464482	     58.12075934	     57.64429579	      7.79009043	      7.17771269	     16.79044392	      9.43147481	     21.76085173	      3.81433079	     11.68386543	      3.94815919	     48.41905893	     48.41905893	     18.38137240	     18.38137240	     35.32261780	     35.32261780	     77.40682283	    327.95041228	     43.26664291	    -25.68460499	      1.98517944	     30.50867101	    -77.40682283	   -327.95041228	    -43.26664291	      9.85655792	     -2.58377947	      2.34596859	    -35.07119713	     80.76472113	     12.91649311	     -3.36918389	      0.83947993	    -14.34229283	     35.07119713	    -80.76472113	    -12.91649311	     -1.39308530	     -0.89229452	      1.74189704	   -110.10936876	   -499.37686738	    106.68382551	    -11.67643619	      2.59023312	      0.10976494	    110.10936876	    499.37686738	   -106.68382551	     53.53434459	     -1.76548282	     46.95274964	    -23.83397450	    -80.77381264	    -19.83198249	      2.73354264	     -0.81916130	      0.05036396	     23.83397450	     80.77381264	     19.83198249	    -10.13907485	      0.56998380	      9.86444321	      5.47612465	    -12.27293988	     25.66578440	     58.87056716	      0.00000000	      0.00000000	      0.00000000	      0.00000000	      0.00000000	      0.00000000	      0.00000000	      0.00000000	      0.00000001	      0.00000000
      0.11023485	     10.09445846	     11.18179137	     12.05917235	      5.10459154	      5.85359275	      6.50521090	    115.86523539	    169.07973157	    219.79426218	    356.43371349	    126.50436351	     11.16588010	      7.90228612	      0.00000000	      4.80914697	      8.39414013	      5.04153169	      3.67839974	    100.72828453	      7.22901661	     11.00794717	      8.30605473	     32.81443237	     24.53433790	      6.99919461	      4.52545945	      4.47760412	     38.39361080	      0.00000000	      0.00000000	      0.00000000	     27.80752868	      1.01784477	      0.00000000	      0.00000000	      1.19804117	      0.00000000	     30.39080144	      3.84373446	      4.86976928	      4.44258706	     17.51656967	      5.36264980	     10.09445846	     11.18179137	     12.05917235	      5.10459154	      5.85359275	      6.50521090	      0.00000000	      8.42398383	     14.88703898	     14.05983619	      2.90878968	     11.16588010	      7.90228612	      0.00000000	      4.80914697	      8.39414013	      6.79530754	      3.67839974	      3.01730166	      7.22901661	     11.00794717	      8.30605473	     32.81443237	     24.53433790	      6.99919461	      4.52545945	      4.47760412	     23.20196140	      0.00000000	      0.00000000	      0.00000000	     16.97041226	      8.68882355	     58.14303985	     57.52148366	      7.68054343	      7.06078870	     16.75147219	      9.38401643	     21.70916768	      3.78757214	     11.78050098	      3.97393338	     48.07734369	     48.07734369	     18.24287125	     18.24287125	     35.19506136	     35.19506136	     79.27104239	    331.88958937	     41.39817620	    -24.99240687	      2.00065073	     31.21732657	    -79.27104239	   -331.88958937	    -41.39817620	      9.87287468	     -2.58911406	      2.45193277	    -31.87868265	     82.25700214	     13.91683300	     -3.73165060	      0.76228733	    -13.01109717	     31.87868265	    -82.25700214	    -13.91683300	     -1.41328848	     -0.83592063	      1.66102738	   -123.25500005	   -522.56946100	    111.22881305	    -12.21231301	      2.86036519	     -0.05361284	    123.25500005	    522.56946100	   -111.22881305	     55.83656682	     -1.99275758	     52.47072031	    -22.98375619	    -76.41939130	    -18.75694055	      2.57934327	     -0.78990391	      0.05730708	     22.98375619	     76.41939130	     18.75694055	     -9.58672150	      0.55072189	      9.50363472	      5.41519326	    -12.05965583	     25.84289978	     59.53647025	      0.00000000	      0.00000000	      0.00000000	      0.00000000	      0.00000000	      0.00000000	      0.00000000	      0.00000000	      0.00000001	      0.00000000
